<svg width="429" height="155" viewBox="0 0 429 155" fill="none" xmlns="http://www.w3.org/2000/svg">
<mask id="mask0_1178_10286" style="mask-type:luminance" maskUnits="userSpaceOnUse" x="0" y="0" width="429" height="155">
<path d="M0.229492 0H428.229V155H0.229492V0Z" fill="white"/>
</mask>
<g mask="url(#mask0_1178_10286)">
<path d="M23.5527 0H404.907C405.662 0 406.417 0.036459 407.173 0.109375C407.923 0.1875 408.673 0.296876 409.412 0.442708C410.157 0.593751 410.891 0.776041 411.615 0.994792C412.339 1.21354 413.048 1.46875 413.751 1.76042C414.449 2.05208 415.131 2.375 415.798 2.72917C416.469 3.08854 417.115 3.47917 417.745 3.90104C418.376 4.31771 418.98 4.77083 419.568 5.25C420.152 5.73438 420.714 6.23958 421.245 6.77604C421.782 7.3125 422.292 7.86979 422.771 8.45833C423.251 9.04167 423.699 9.65104 424.12 10.2812C424.542 10.9115 424.933 11.5625 425.287 12.2292C425.646 12.8958 425.969 13.5833 426.256 14.2812C426.548 14.9792 426.803 15.6927 427.021 16.4167C427.24 17.1458 427.423 17.8802 427.574 18.6198C427.719 19.3646 427.829 20.1146 427.907 20.8646C427.98 21.6198 428.016 22.375 428.016 23.1354V131.865C428.016 132.625 427.98 133.38 427.907 134.135C427.829 134.885 427.719 135.635 427.574 136.38C427.423 137.12 427.24 137.854 427.021 138.583C426.803 139.307 426.548 140.021 426.256 140.719C425.969 141.417 425.646 142.104 425.287 142.771C424.933 143.438 424.542 144.089 424.12 144.719C423.699 145.349 423.251 145.958 422.771 146.542C422.292 147.13 421.782 147.688 421.245 148.224C420.714 148.76 420.152 149.266 419.568 149.75C418.98 150.229 418.376 150.682 417.745 151.099C417.115 151.521 416.469 151.911 415.798 152.271C415.131 152.625 414.449 152.948 413.751 153.24C413.048 153.531 412.339 153.786 411.615 154.005C410.891 154.224 410.157 154.406 409.412 154.557C408.673 154.703 407.923 154.812 407.173 154.891C406.417 154.964 405.662 155 404.907 155H23.5527C22.7975 155 22.0423 154.964 21.2871 154.891C20.5371 154.812 19.7871 154.703 19.0475 154.557C18.3027 154.406 17.5684 154.224 16.8444 154.005C16.1204 153.786 15.4069 153.531 14.709 153.24C14.0111 152.948 13.3288 152.625 12.6569 152.271C11.9902 151.911 11.3444 151.521 10.7142 151.099C10.084 150.682 9.47461 150.229 8.89128 149.75C8.30794 149.266 7.74544 148.76 7.20898 148.224C6.67773 147.688 6.16732 147.13 5.68815 146.542C5.20898 145.958 4.75586 145.349 4.33919 144.719C3.91732 144.089 3.52669 143.438 3.17253 142.771C2.81315 142.104 2.49023 141.417 2.20378 140.719C1.91211 140.021 1.6569 139.307 1.43815 138.583C1.2194 137.854 1.0319 137.12 0.886068 136.38C0.740236 135.635 0.625652 134.885 0.552734 134.135C0.479818 133.38 0.443359 132.625 0.443359 131.865V23.1354C0.443359 22.375 0.479818 21.6198 0.552734 20.8646C0.625652 20.1146 0.740236 19.3646 0.886068 18.6198C1.0319 17.8802 1.2194 17.1458 1.43815 16.4167C1.6569 15.6927 1.91211 14.9792 2.20378 14.2812C2.49023 13.5833 2.81315 12.8958 3.17253 12.2292C3.52669 11.5625 3.91732 10.9115 4.33919 10.2812C4.75586 9.65104 5.20898 9.04167 5.68815 8.45833C6.16732 7.86979 6.67773 7.3125 7.20898 6.77604C7.74544 6.23958 8.30794 5.73438 8.89128 5.25C9.47461 4.77083 10.084 4.31771 10.7142 3.90104C11.3444 3.47917 11.9902 3.08854 12.6569 2.72917C13.3288 2.375 14.0111 2.05208 14.709 1.76042C15.4069 1.46875 16.1204 1.21354 16.8444 0.994792C17.5684 0.776041 18.3027 0.593751 19.0475 0.442708C19.7871 0.296876 20.5371 0.1875 21.2871 0.109375C22.0423 0.036459 22.7975 0 23.5527 0Z" fill="black"/>
</g>
<path d="M111.479 74.0729L119.604 65.9427L81.5524 43.9844L111.479 74.0729ZM73.8337 42.2188C72.0732 43.1667 70.8545 44.9323 70.8545 47.099V106.88C70.8545 109.047 72.0732 110.807 73.8337 111.625L108.5 76.9219L73.8337 42.2188ZM131.386 72.8542L123.396 68.2448L114.459 76.9219L123.396 85.7344L131.521 81.125C133.959 79.224 133.959 74.7552 131.386 72.8542ZM81.5524 109.859L119.604 88.0365L111.479 79.9062L81.5524 109.859Z" fill="white"/>
<path d="M177.661 55.5205L175.969 50.9111H167.151L165.458 55.5205H163.406L170.479 36.3643H172.672L179.714 55.5205H177.661ZM175.391 49.3018L171.562 38.8122L167.734 49.3018H175.391ZM181.026 40.3643H183.109L188.214 53.6351L193.312 40.3643H195.365L189.292 55.5205H187.104L181.026 40.3643ZM197.109 47.9163C197.109 43.1663 200.188 40.1403 204.349 40.1403C207.401 40.1403 209.479 41.7809 210.339 43.6976V40.3643H212.281V55.5205H210.339V52.1611C209.453 54.1038 207.344 55.7445 204.323 55.7445C200.188 55.7445 197.109 52.6611 197.109 47.9163ZM210.339 47.9424C210.339 44.1663 207.818 41.8382 204.708 41.8382C201.521 41.8382 199.078 44.057 199.078 47.9163C199.078 51.7445 201.521 54.0518 204.708 54.0518C207.818 54.0518 210.339 51.7184 210.339 47.9424ZM216.714 55.5205V40.3643H218.656V55.5205H216.714ZM217.682 37.5049C216.906 37.5049 216.271 36.8955 216.271 36.0622C216.271 35.2288 216.906 34.6455 217.682 34.6455C218.464 34.6455 219.099 35.2288 219.099 36.0622C219.099 36.8955 218.464 37.5049 217.682 37.5049ZM223.052 55.5205V34.9788H224.995V55.5205H223.052ZM228.5 47.9163C228.5 43.1663 231.583 40.1403 235.74 40.1403C238.792 40.1403 240.87 41.7809 241.734 43.6976V40.3643H243.672V55.5205H241.734V52.1611C240.844 54.1038 238.734 55.7445 235.714 55.7445C231.583 55.7445 228.5 52.6611 228.5 47.9163ZM241.734 47.9424C241.734 44.1663 239.208 41.8382 236.104 41.8382C232.911 41.8382 230.469 44.057 230.469 47.9163C230.469 51.7445 232.911 54.0518 236.104 54.0518C239.208 54.0518 241.734 51.7184 241.734 47.9424ZM250.016 43.7236C250.958 41.7236 253.068 40.1403 256.036 40.1403C260.198 40.1403 263.245 43.1663 263.245 47.9163C263.245 52.6611 260.167 55.7445 256.036 55.7445C253.016 55.7445 250.932 54.1611 250.016 52.1924V55.5205H248.104V34.9788H250.016V43.7236ZM261.276 47.9163C261.276 44.057 258.839 41.8382 255.646 41.8382C252.568 41.8382 250.016 44.1663 250.016 47.9424C250.016 51.7184 252.568 54.0518 255.646 54.0518C258.839 54.0518 261.276 51.7445 261.276 47.9163ZM266.823 55.5205V34.9788H268.76V55.5205H266.823ZM279.62 41.807C276.875 41.807 274.464 43.583 274.24 47.109H284.891C284.974 43.583 282.422 41.807 279.62 41.807ZM286.635 50.7184C285.943 53.5778 283.505 55.7445 279.703 55.7445C275.406 55.7445 272.271 52.7445 272.271 47.9424C272.271 43.1143 275.349 40.1403 279.703 40.1403C284.141 40.1403 286.859 43.307 286.859 47.1663C286.859 47.7757 286.859 48.1663 286.802 48.6924H274.24C274.406 52.2445 276.875 54.1038 279.703 54.1038C282.281 54.1038 284.031 52.7445 284.583 50.7184H286.635ZM309.365 55.5205V46.859C309.365 43.4997 307.536 41.7809 304.76 41.7809C301.932 41.7809 299.964 43.557 299.964 47.2497V55.5205H298.021V40.3643H299.964V42.9476C300.932 41.057 302.875 40.0882 305.12 40.0882C308.562 40.0882 311.281 42.1976 311.281 46.6403V55.5205H309.365ZM329.828 47.9424C329.828 52.7445 326.474 55.7445 322.203 55.7445C317.932 55.7445 314.688 52.7445 314.688 47.9424C314.688 43.1143 318.016 40.1403 322.255 40.1403C326.526 40.1403 329.828 43.1143 329.828 47.9424ZM316.656 47.9424C316.656 52.1091 319.318 54.0518 322.203 54.0518C325.057 54.0518 327.833 52.1091 327.833 47.9424C327.833 43.7809 325.115 41.8382 322.229 41.8382C319.344 41.8382 316.656 43.7809 316.656 47.9424ZM336.307 55.5205L331.562 40.3643H333.531L337.307 53.5518L341.547 40.3643H343.49L347.677 53.5778L351.422 40.3643H353.339L348.594 55.5205H346.651L342.464 42.807L338.276 55.5205H336.307Z" fill="white"/>
<path d="M185.427 90.5155C185.427 92.9321 184.594 94.9425 182.933 96.5519C181.297 98.1353 178.787 98.9269 175.401 98.9269H169.828V111.047H166.042V82.0207H175.401C178.672 82.0207 181.157 82.8123 182.849 84.3957C184.568 85.9738 185.427 88.0155 185.427 90.5155ZM175.401 95.8019C177.511 95.8019 179.063 95.3436 180.063 94.4321C181.058 93.5155 181.558 92.2082 181.558 90.5155C181.558 86.9321 179.506 85.1457 175.401 85.1457H169.828V95.8019H175.401ZM193.917 80.229V111.047H190.136V80.229H193.917ZM198.959 99.5519C198.959 97.2186 199.427 95.1769 200.37 93.4321C201.313 91.6509 202.604 90.2811 204.24 89.3071C205.907 88.3384 207.75 87.8488 209.771 87.8488C211.771 87.8488 213.506 88.2811 214.974 89.1405C216.443 89.9998 217.537 91.0832 218.261 92.3905V88.2238H222.089V111.047H218.261V106.797C217.511 108.13 216.386 109.239 214.891 110.13C213.422 110.989 211.703 111.422 209.729 111.422C207.709 111.422 205.875 110.922 204.24 109.922C202.604 108.922 201.313 107.521 200.37 105.713C199.427 103.911 198.959 101.854 198.959 99.5519ZM218.261 99.5936C218.261 97.8696 217.912 96.3748 217.219 95.0936C216.526 93.8175 215.584 92.8488 214.391 92.1821C213.224 91.4894 211.938 91.1405 210.521 91.1405C209.11 91.1405 207.818 91.4738 206.651 92.1405C205.49 92.8071 204.558 93.7759 203.865 95.0519C203.172 96.3332 202.828 97.828 202.828 99.5519C202.828 101.302 203.172 102.828 203.865 104.13C204.558 105.411 205.49 106.396 206.651 107.088C207.818 107.755 209.11 108.088 210.521 108.088C211.938 108.088 213.224 107.755 214.391 107.088C215.584 106.396 216.526 105.411 217.219 104.13C217.912 102.828 218.261 101.312 218.261 99.5936ZM248.12 88.2238L234.391 121.786H230.479L234.974 110.797L225.782 88.2238H229.985L237.136 106.713L244.209 88.2238H248.12ZM272.214 111.338C270.297 111.338 268.578 111.005 267.052 110.338C265.558 109.64 264.375 108.698 263.516 107.505C262.657 106.281 262.214 104.88 262.188 103.297H266.224C266.36 104.661 266.917 105.812 267.886 106.755C268.886 107.672 270.328 108.13 272.214 108.13C274.016 108.13 275.427 107.687 276.459 106.797C277.511 105.88 278.037 104.713 278.037 103.297C278.037 102.187 277.729 101.286 277.12 100.594C276.511 99.9009 275.75 99.3696 274.834 99.0103C273.917 98.6509 272.683 98.2603 271.131 97.8436C269.219 97.3436 267.677 96.8436 266.511 96.3436C265.375 95.8436 264.391 95.0675 263.558 94.0155C262.756 92.9321 262.354 91.4894 262.354 89.6821C262.354 88.0988 262.756 86.6978 263.558 85.479C264.365 84.255 265.485 83.3123 266.927 82.6457C268.401 81.979 270.078 81.6457 271.964 81.6457C274.683 81.6457 276.901 82.328 278.62 83.6873C280.365 85.0467 281.349 86.8488 281.573 89.0988H277.412C277.276 87.9894 276.693 87.0155 275.667 86.1821C274.641 85.3228 273.282 84.8957 271.589 84.8957C270.006 84.8957 268.719 85.3123 267.719 86.1405C266.719 86.9478 266.224 88.0884 266.224 89.5571C266.224 90.6144 266.511 91.4738 267.094 92.1405C267.703 92.8071 268.443 93.3175 269.302 93.6821C270.188 94.0155 271.422 94.4009 273.006 94.8436C274.917 95.3748 276.459 95.9009 277.62 96.4269C278.787 96.9269 279.787 97.7186 280.615 98.8019C281.448 99.8592 281.865 101.302 281.865 103.135C281.865 104.547 281.49 105.88 280.74 107.13C279.99 108.38 278.881 109.39 277.412 110.172C275.943 110.948 274.209 111.338 272.214 111.338ZM292.052 91.3488V104.797C292.052 105.911 292.287 106.698 292.761 107.172C293.229 107.614 294.047 107.838 295.214 107.838H298V111.047H294.589C292.485 111.047 290.901 110.557 289.849 109.588C288.792 108.614 288.266 107.021 288.266 104.797V91.3488H285.313V88.2238H288.266V82.479H292.052V88.2238H298V91.3488H292.052ZM312.532 111.422C310.396 111.422 308.453 110.932 306.709 109.963C304.99 108.989 303.631 107.614 302.631 105.838C301.662 104.036 301.172 101.953 301.172 99.5936C301.172 97.2603 301.672 95.2082 302.672 93.4321C303.698 91.6248 305.084 90.2498 306.834 89.3071C308.578 88.3384 310.537 87.8488 312.698 87.8488C314.86 87.8488 316.818 88.3384 318.563 89.3071C320.313 90.2498 321.683 91.6092 322.683 93.3905C323.709 95.1665 324.224 97.2342 324.224 99.5936C324.224 101.953 323.693 104.036 322.641 105.838C321.615 107.614 320.214 108.989 318.438 109.963C316.662 110.932 314.693 111.422 312.532 111.422ZM312.532 108.088C313.891 108.088 315.167 107.771 316.36 107.13C317.552 106.489 318.511 105.536 319.229 104.255C319.979 102.979 320.354 101.427 320.354 99.5936C320.354 97.7603 319.99 96.2082 319.271 94.9269C318.552 93.6509 317.61 92.7082 316.443 92.0988C315.276 91.4582 314.016 91.1405 312.657 91.1405C311.271 91.1405 309.995 91.4582 308.828 92.0988C307.693 92.7082 306.776 93.6509 306.084 94.9269C305.391 96.2082 305.042 97.7603 305.042 99.5936C305.042 101.453 305.375 103.021 306.042 104.297C306.735 105.578 307.651 106.531 308.787 107.172C309.927 107.781 311.172 108.088 312.532 108.088ZM332.985 91.9321C333.651 90.6248 334.594 89.6144 335.813 88.8905C337.063 88.1717 338.573 87.8071 340.349 87.8071V91.7238H339.349C335.104 91.7238 332.985 94.0259 332.985 98.6353V111.047H329.198V88.2238H332.985V91.9321ZM365.521 98.7603C365.521 99.4842 365.479 100.245 365.396 101.052H347.172C347.313 103.297 348.073 105.062 349.459 106.338C350.875 107.588 352.578 108.213 354.578 108.213C356.214 108.213 357.573 107.838 358.657 107.088C359.766 106.312 360.542 105.286 360.985 104.005H365.063C364.453 106.198 363.229 107.989 361.401 109.38C359.568 110.739 357.297 111.422 354.578 111.422C352.412 111.422 350.474 110.932 348.756 109.963C347.063 108.989 345.729 107.614 344.761 105.838C343.787 104.036 343.302 101.953 343.302 99.5936C343.302 97.2342 343.776 95.1665 344.719 93.3905C345.662 91.6092 346.979 90.2498 348.672 89.3071C350.391 88.3384 352.36 87.8488 354.578 87.8488C356.74 87.8488 358.657 88.3228 360.318 89.2655C361.985 90.2082 363.261 91.5155 364.146 93.1821C365.063 94.8175 365.521 96.6769 365.521 98.7603ZM361.61 97.9686C361.61 96.5259 361.287 95.2915 360.651 94.2655C360.016 93.2082 359.141 92.4165 358.032 91.8905C356.948 91.3332 355.74 91.0571 354.412 91.0571C352.495 91.0571 350.86 91.6665 349.5 92.8905C348.172 94.1092 347.407 95.8019 347.214 97.9686H361.61Z" fill="white"/>
</svg>
